# xmcd
#
# Track frame offsets: 
#        150
#        37756
#        128874
#        209410
#
# Disc length: 4335 seconds
#
# Revision: 1
# Processed by: cddbd v1.5.2PL0 Copyright (c) Steve Scherf et al.
# Submitted via: ExactAudioCopyFreeDBPlugin 1.0
#
DISCID=2f10ed04
DTITLE=Buck Clayton Jam Session - Swing Time 095 - Jam Sessions 05 - 1
DTITLE=953
DYEAR=1953
DGENRE=Jazz
TTITLE0=Lean Baby
TTITLE1=The Huckle Buck
TTITLE2=Robbins' Nest
TTITLE3=Christopher Columbus
EXTD=YEAR: 2006
EXTT0=
EXTT1=
EXTT2=
EXTT3=
PLAYORDER=
